# xmcd
#
# Track frame offsets: 
#        150
#        20932
#        37120
#        59180
#        76382
#        92267
#        110955
#        132442
#        145150
#        164660
#        179522
#        196680
#        216145
#        234690
#        250542
#
# Disc length: 3592 seconds
#
# Revision: 2
# Processed by: cddbd v1.5.1PL2 Copyright (c) Steve Scherf et al.
# Submitted via: ExactAudioCopy v0.95b2
#
DISCID=e10e060f
DTITLE=Chitãozinho and Xororó - Sem Limite [CD1)
DYEAR=2001
DGENRE=Sertanejo
TTITLE0=Um, Dois, Três (Estúdio)
TTITLE1=Coração Sertanejo
TTITLE2=Evidências
TTITLE3=Ela Não Vai Mais Chorar (She's Not Crying Anymore) (Participaç
TTITLE3=ão Especial: Billy Ray Cyrus) 
TTITLE4=Deixer De Se Cowboy Por Ela
TTITLE5=Nuvem De Lágrimas
TTITLE6=Um Homem Quando Ama (Have You Ever Really Loved A Woman)
TTITLE7=Na Aba Do Meu Chapéu
TTITLE8=Falando Às Paredes
TTITLE9=Palavras (Words) (Participação Especial: Bee Gees)
TTITLE10=Cara A Cara, Frente A Frente
TTITLE11=Meu Senhor (My Sweet Lord)
TTITLE12=Foge De Mim
TTITLE13=É Disso Que O Velho Gosta
TTITLE14=Medley Polkas - Galopeira (Galopera) - Vá Pro Inferno Com Seu 
TTITLE14=Amor (Ao Vivo)
EXTD=kiroiva@hotmail.com
EXTT0=
EXTT1=
EXTT2=
EXTT3=
EXTT4=
EXTT5=
EXTT6=
EXTT7=
EXTT8=
EXTT9=
EXTT10=
EXTT11=
EXTT12=
EXTT13=
EXTT14=
PLAYORDER=
